# xmcd CD database file
#
# Track frame offsets:
#	150
#	15000
#	36677
#	53625
#	91050
#	114075
#	134025
#	151950
#	189675
#	206400
#	221925
#	244500
#
# Disc length: 3518 seconds
#
# Revision: 0
# Processed by: cddbd v1.5.1PL0 Copyright (c) Steve Scherf et al.
# Submitted via: CDex 1.51
#
DISCID=9e0dbc0c
DTITLE=BOBOS and The Frozen Dozen - BOBOS and The Frozen Dozen
DYEAR=1999
DGENRE=Blues
TTITLE0=Funny Time Boogie
TTITLE1=Way From Here
TTITLE2=Go Go
TTITLE3=Rainy Blues
TTITLE4=Got The Go
TTITLE5=Easy Lover
TTITLE6=Blowin` Like heaven-To william Clark
TTITLE7=Sweet Death, Sweet Freedom-The Tibetan Blues
TTITLE8=Devils Walk
TTITLE9=Way Black Home
TTITLE10=The Muddy Waters Blues
TTITLE11=Rockin The Boogie
EXTD=YEAR: 1999
EXTT0=
EXTT1=
EXTT2=
EXTT3=
EXTT4=
EXTT5=
EXTT6=
EXTT7=
EXTT8=
EXTT9=
EXTT10=
EXTT11=
PLAYORDER=
